<?xml version="1.0" standalone="no"?>
<svg viewBox="0 0 200 200" xmlns="http://www.w3.org/2000/svg">
  <path fill="#24A148" d="M36.4,-59.3C46.2,-50.3,52.5,-38.6,62.1,-25.9C71.6,-13.3,84.3,0.3,83.2,12.4C82.1,24.4,67.2,34.8,54,42.8C40.9,50.8,29.6,56.4,17.1,61.5C4.7,66.6,-8.8,71.2,-21.8,69.5C-34.9,67.9,-47.6,60.1,-60.1,49.8C-72.7,39.5,-85.1,26.8,-86.5,12.8C-87.9,-1.1,-78.2,-16.2,-70.5,-31.9C-62.9,-47.7,-57.3,-64.1,-45.9,-72.5C-34.5,-80.8,-17.3,-81,-2,-77.9C13.3,-74.8,26.6,-68.4,36.4,-59.3Z" transform="translate(100 100)" />
</svg>
